<?xml version="1.0" encoding="UTF-8" standalone="no"?>
<!-- Created with Inkscape (http://www.inkscape.org/) -->

<svg
   width="127.99999"
   height="127.99999"
   viewBox="0 0 33.866664 33.866664"
   version="1.1"
   id="svg2243"
   inkscape:version="1.1.2 (0a00cf5339, 2022-02-04)"
   sodipodi:docname="icon.svg"
   inkscape:export-filename="/home/marco/Scrivania/hottest/yellowed_pages/assets/images/icon.png"
   inkscape:export-xdpi="96"
   inkscape:export-ydpi="96"
   xmlns:inkscape="http://www.inkscape.org/namespaces/inkscape"
   xmlns:sodipodi="http://sodipodi.sourceforge.net/DTD/sodipodi-0.dtd"
   xmlns="http://www.w3.org/2000/svg"
   xmlns:svg="http://www.w3.org/2000/svg">
  <sodipodi:namedview
     id="namedview2245"
     pagecolor="#ffffff"
     bordercolor="#666666"
     borderopacity="1.0"
     inkscape:pageshadow="2"
     inkscape:pageopacity="0.0"
     inkscape:pagecheckerboard="0"
     inkscape:document-units="mm"
     showgrid="false"
     fit-margin-top="0"
     fit-margin-left="0"
     fit-margin-right="0"
     fit-margin-bottom="0"
     units="px"
     inkscape:zoom="7.1171879"
     inkscape:cx="63.999996"
     inkscape:cy="76.223925"
     inkscape:window-width="1846"
     inkscape:window-height="1016"
     inkscape:window-x="0"
     inkscape:window-y="0"
     inkscape:window-maximized="1"
     inkscape:current-layer="layer1" />
  <defs
     id="defs2240" />
  <g
     inkscape:label="Livello 1"
     inkscape:groupmode="layer"
     id="layer1"
     transform="translate(-43.988237,-16.472357)">
    <circle
       style="fill:#ecdfab;fill-opacity:1;stroke:#4b0704;stroke-width:0.594254;stroke-opacity:1"
       id="path2410"
       cx="60.92157"
       cy="33.405689"
       r="16.636206" />
    <g
       id="g2353"
       transform="matrix(0.74439184,0,0,0.74439184,44.025427,-132.67981)"
       style="fill:#4b0704;fill-opacity:1;stroke:#be8448;stroke-width:0.263961;stroke-linecap:round;stroke-linejoin:round;stroke-miterlimit:4;stroke-dasharray:none;stroke-opacity:1">
      <path
         d="m 44.343759,211.01882 c -0.2356,-0.25997 -0.214103,-0.56728 -0.426502,-0.80184 0.07335,-0.42673 -0.471535,-0.42673 -0.446288,-0.80176 -0.07093,-0.14055 -0.309128,-0.16604 -0.354161,-0.0291 0.04508,0.87437 -0.448843,1.60572 -0.992036,2.19732 -0.922088,1.10893 -2.478808,1.41602 -3.821425,1.67395 -0.144158,0.0961 -0.332329,-0.0219 -0.428206,0.11943 -0.588734,0.11724 -1.201018,0.11724 -1.791292,0.16603 -0.378899,0.0728 -0.946485,0.0728 -1.324533,0.0219 -0.282344,0.0939 -0.51726,0 -0.799771,0 -0.262209,0.0939 -0.498151,-0.0961 -0.732893,0.0437 -0.9197,-0.14273 -1.910712,0.0437 -2.879716,-0.0437 -0.115837,-0.051 -0.187494,0.11724 -0.258291,0.0219 l -1.439516,0.11724 c -0.2617,0.0218 -0.494911,-0.0219 -0.778957,0.0437 -1.205284,-0.0437 -2.502691,0.23667 -3.541641,0.7805 -1.132952,0.42455 -2.0779,1.53334 -2.454925,2.69208 0.07078,0.18788 -0.141594,0.35173 -0.115837,0.54179 -0.259653,0.59058 -0.11977,1.32193 0.164293,1.88848 0.07166,0.25852 0.167359,0.5418 0.2356,0.82471 -0.378047,-0.1187 -0.777933,-0.35318 -0.920383,-0.73324 -0.07078,-0.0437 -0.187494,-0.0918 -0.259996,0 -0.02323,0.19006 0,0.40416 0.09503,0.54543 0.307249,1.18037 0.871933,2.17176 1.862944,2.92583 h 0.07166 c 0.379751,0.37722 0.967128,0.49446 1.393626,0.8277 0.07078,0.0218 0.116682,-0.0291 0.187494,0.0437 0.331644,0.0218 0.590445,0.18788 0.85129,0.25852 l 0.094,-0.0219 c 0.260848,0.16676 0.707303,0.051 0.991354,0.0968 0.116682,0.1187 0.260847,-0.051 0.400738,-0.0728 0.32994,0 0.660391,-0.0932 1.01609,-0.11724 0.116682,-0.0437 0.256754,-0.16385 0.212399,-0.3044 -0.780492,-0.38013 -1.228486,-1.18124 -1.512534,-1.96189 -0.283196,-0.63573 -0.116682,-1.41594 -0.210862,-2.12566 -0.04814,-0.0728 -0.167359,-0.0437 -0.213251,0.0218 -0.212399,0.37722 -0.661243,0.59059 -1.08433,0.54398 -0.02527,-0.23667 -0.02527,-0.59058 0.187319,-0.75552 0.235768,-0.49665 0.659881,-0.85063 1.038098,-1.15707 0.897182,-0.49737 1.958479,-0.84888 3.021313,-0.80213 1.015237,-0.14054 2.0779,0.16531 2.927484,0.47407 0.566393,0.42382 1.154618,0.70564 1.746938,1.08213 0.568097,0.56801 0.897181,1.32201 1.181231,2.05401 0.187494,0.30804 0.115837,0.8022 0.305545,1.13449 0.21154,0.5651 0.04843,0.94544 0.02403,1.50945 0.09588,0.19006 -0.142271,0.35464 -0.04639,0.54398 -0.07253,0.35464 -0.213251,0.73222 -0.308444,1.08635 -0.165662,0.28255 -0.282344,0.5884 -0.471535,0.82471 -0.07151,0.23594 -0.284048,0.44931 -0.378046,0.6867 -0.399886,0.49446 -0.707987,1.17957 -1.346029,1.53268 l -0.352457,1.51185 c -0.613988,1.74692 -1.816881,3.37449 -3.282329,4.62498 1.629223,0 2.736413,-1.06217 4.130209,-1.77088 l 0.04639,0.0728 c 0.969685,0.45003 2.05572,0.87451 3.046903,0.284 0.565533,-0.14054 0.967981,-0.54398 1.226268,-1.0396 0.142447,-0.0932 0.213928,-0.23303 0.213928,-0.4231 -0.140749,-0.14345 -0.354845,0 -0.472219,0.0939 -0.613989,0.0954 -1.275401,-0.0939 -1.701047,-0.5447 0.542333,-0.56437 1.017113,-1.06196 1.53437,-1.65174 0.237647,-0.21046 0.354161,-0.5418 0.615693,-0.68234 0.04508,-0.19007 0.116682,-0.30804 0.233379,-0.45004 0.02578,-0.18861 0.189708,-0.28401 0.189708,-0.47189 0.117549,-0.284 0.307424,-0.49518 0.377362,-0.80402 0.329941,-0.40198 0.474098,-0.87124 0.590613,-1.36941 0.473924,0 0.874492,-0.28328 1.252882,-0.56655 0.539776,-0.5418 0.846173,-1.3668 0.846173,-2.14446 0,-0.0954 -0.139898,-0.16749 -0.04508,-0.26288 -0.139883,-0.18643 0.116682,-0.35392 -0.02323,-0.5418 -0.164795,-0.0947 -0.238156,0.1187 -0.353993,0.16749 -0.284901,0.42382 -0.826383,0.63719 -1.321976,0.65831 0,-0.0728 0,-0.0939 0.02323,-0.16385 0,-0.23667 0,-0.45004 -0.04843,-0.66122 0.09433,-0.32988 -0.163943,-0.59058 -0.094,-0.94377 -0.02403,-0.21045 -0.02403,-0.33061 -0.06991,-0.51703 -0.119246,-0.19007 -0.141595,-0.37795 -0.187494,-0.59204 h -0.04843 c -0.235593,-0.35319 -0.353141,-0.6605 -0.543017,-1.01543 -0.470683,-0.68379 -1.015408,-1.32113 -1.652766,-1.76913 0.568097,0.0437 1.014383,0.11797 1.510316,-0.0291 0.616203,0.051 1.061982,-0.0932 1.651061,-0.16458 0.590446,0.0437 1.135338,-0.19006 1.677673,-0.25997 0.354846,-0.13982 0.756437,-0.13982 1.062835,-0.351 0.353993,-0.0961 0.707302,-0.42673 0.778103,-0.80388 0.544043,-0.63792 0.566392,-1.53537 0.826382,-2.28944 0.0957,-0.99147 -0.165815,-1.86635 -0.306739,-2.7381"
         fill-rule="nonzero"
         fill="#231f20"
         id="path48"
         style="fill:#4b0704;fill-opacity:1;stroke:#be8448;stroke-width:0.263961;stroke-linecap:round;stroke-linejoin:round;stroke-miterlimit:4;stroke-dasharray:none;stroke-opacity:1" />
      <g
         transform="matrix(0.21324895,0,0,-0.21324917,-124.72518,430.19837)"
         id="g52"
         style="fill:#4b0704;fill-opacity:1;stroke:#be8448;stroke-width:1.23781;stroke-linecap:round;stroke-linejoin:round;stroke-miterlimit:4;stroke-dasharray:none;stroke-opacity:1">
        <path
           stroke-linejoin="miter"
           d="m 792.7,1028 c -1.106,1.22 -1.004,2.66 -2,3.76 0.344,2 -2.211,2 -2.094,3.76 -0.332,0.66 -1.449,0.78 -1.66,0.12 0.211,-4.11 -2.106,-7.54 -4.652,-10.3 -4.325,-5.2 -11.62,-6.64 -17.92,-7.85 -0.676,-0.45 -1.559,0.11 -2.008,-0.56 -2.762,-0.55 -5.633,-0.55 -8.402,-0.78 -1.778,-0.33 -4.438,-0.33 -6.211,-0.12 -1.325,-0.43 -2.426,0 -3.75,0 -1.231,-0.43 -2.336,0.46 -3.438,-0.21 -4.312,0.67 -8.961,-0.22 -13.51,0.21 -0.543,0.23 -0.879,-0.54 -1.211,-0.1 l -6.75,-0.56 c -1.226,-0.1 -2.32,0.12 -3.652,-0.21 -5.652,0.21 -11.74,-1.11 -16.6,-3.66 -5.313,-1.99 -9.747,-7.19 -11.52,-12.62 0.332,-0.879 -0.664,-1.648 -0.543,-2.539 -1.219,-2.769 -0.563,-6.199 0.769,-8.855 0.336,-1.211 0.786,-2.539 1.106,-3.868 -1.774,0.555 -3.649,1.657 -4.317,3.438 -0.332,0.211 -0.878,0.43 -1.218,0 -0.11,-0.891 0,-1.895 0.445,-2.559 1.441,-5.535 4.09,-10.18 8.738,-13.72 h 0.336 c 1.782,-1.77 4.535,-2.321 6.535,-3.883 0.332,-0.11 0.547,0.121 0.879,-0.219 1.555,-0.113 2.77,-0.879 3.993,-1.211 l 0.441,0.113 c 1.223,-0.781 3.316,-0.23 4.648,-0.453 0.547,-0.554 1.223,0.223 1.879,0.34 1.547,0 3.098,0.438 4.766,0.551 0.547,0.219 1.203,0.769 0.996,1.43 -3.66,1.781 -5.762,5.539 -7.094,9.195 -1.328,2.98 -0.547,6.641 -0.988,9.965 -0.227,0.328 -0.785,0.219 -1,-0.114 -0.996,-1.769 -3.102,-2.769 -5.086,-2.55 -0.117,1.109 -0.117,2.769 0.879,3.543 1.105,2.328 3.094,3.988 4.867,5.425 4.207,2.332 9.188,3.981 14.17,3.762 4.762,0.66 9.742,-0.773 13.73,-2.222 2.656,-1.989 5.414,-3.309 8.187,-5.075 2.664,-2.664 4.207,-6.199 5.539,-9.629 0.879,-1.445 0.543,-3.761 1.434,-5.32 0.992,-2.648 0.226,-4.434 0.113,-7.078 0.449,-0.891 -0.668,-1.664 -0.219,-2.551 -0.34,-1.664 -1,-3.433 -1.445,-5.094 -0.777,-1.324 -1.324,-2.757 -2.211,-3.867 -0.336,-1.105 -1.332,-2.109 -1.773,-3.218 -1.875,-2.321 -3.321,-5.532 -6.313,-7.188 l -1.652,-7.09 c -2.879,-8.191 -8.52,-15.83 -15.39,-21.69 7.641,0 12.84,4.98 19.37,8.3 l 0.219,-0.332 c 4.547,-2.109 9.641,-4.101 14.28,-1.332 2.652,0.661 4.539,2.551 5.75,4.875 0.668,0.438 1.004,1.094 1.004,1.985 -0.66,0.672 -1.664,0 -2.215,-0.442 -2.879,-0.449 -5.98,0.442 -7.976,2.555 2.543,2.648 4.769,4.981 7.195,7.746 1.113,0.988 1.66,2.539 2.887,3.199 0.211,0.891 0.547,1.446 1.093,2.11 0.122,0.883 0.891,1.332 0.891,2.211 0.551,1.332 1.441,2.32 1.77,3.769 1.546,1.883 2.222,4.086 2.769,6.422 2.223,0 4.102,1.328 5.875,2.656 2.531,2.539 3.969,6.41 3.969,10.06 0,0.449 -0.656,0.785 -0.211,1.234 -0.656,0.875 0.547,1.66 -0.109,2.539 -0.774,0.446 -1.118,-0.554 -1.661,-0.785 -1.336,-1.988 -3.875,-2.988 -6.199,-3.086 0,0.328 0,0.442 0.11,0.77 0,1.109 0,2.109 -0.227,3.101 0.441,1.547 -0.77,2.77 -0.441,4.426 -0.114,0.988 -0.114,1.551 -0.329,2.426 -0.558,0.891 -0.664,1.773 -0.878,2.777 h -0.227 c -1.105,1.656 -1.656,3.098 -2.547,4.762 -2.207,3.207 -4.762,6.195 -7.75,8.293 2.664,-0.219 4.758,-0.551 7.082,0.121 2.891,-0.234 4.981,0.438 7.742,0.773 2.77,-0.222 5.325,0.891 7.868,1.219 1.664,0.656 3.546,0.656 4.984,1.647 1.66,0.45 3.316,2 3.648,3.77 2.551,2.99 2.657,7.2 3.875,10.74 0.45,4.65 -0.777,8.75 -1.437,12.84 z"
           stroke="#ffffff"
           stroke-linecap="butt"
           stroke-miterlimit="2.6131"
           stroke-dasharray="none"
           stroke-width="3.77406"
           fill="none"
           id="path50"
           style="fill:#4b0704;fill-opacity:1;stroke:#be8448;stroke-width:1.23781;stroke-linecap:round;stroke-linejoin:round;stroke-miterlimit:4;stroke-dasharray:none;stroke-opacity:1" />
      </g>
      <path
         d="m 16.706667,209.48345 c 0.187494,0.11724 0.519991,0.11724 0.732214,0.23885 0.117206,-0.0728 0.09401,0.11506 0.2356,0.11506 0.236794,-0.0437 0.449018,0.0219 0.613989,0.11725 -0.542333,0.14491 -1.13278,0.28327 -1.723052,0.35609 -0.40159,-0.28327 -0.66227,-0.75268 -1.133632,-1.0171 0.447992,0 0.826383,0.23667 1.274377,0.18934 z m 9.819698,28.89951 c -0.190057,-0.16749 -0.403301,-0.28401 -0.613137,-0.42528 -0.07335,-0.16531 -0.2849,-0.18934 -0.332496,-0.40198 0,-0.37867 -0.189708,-0.59204 -0.116682,-0.99219 0.04763,-0.21337 0.283363,-0.25852 0.354845,-0.44786 0.162575,-0.0947 0.304009,-0.30657 0.51726,-0.30657 0.283196,-0.2374 0.706451,-0.35392 0.990499,-0.56801 2.081312,-0.91952 3.683238,-3.09128 4.558414,-5.0941 0.115837,-0.51995 0.233379,-1.04048 0.378046,-1.53537 l 0.635654,-0.26289 c 0.164795,-0.16312 0.238156,-0.3743 0.281492,-0.6117 -0.04333,-0.35319 -0.305036,-0.66122 -0.540628,-0.84888 0.09485,-0.30877 0.353141,-0.73376 0.2356,-1.01783 0.07166,-0.32916 -0.09485,-0.65977 -0.189708,-0.98878 -0.260847,-0.73069 -1.013018,-1.27525 -1.769114,-1.44019 -0.1184,-0.0219 -0.259995,0.0728 -0.235767,0.21264 0.28166,0.25997 0.496447,0.56801 0.637357,0.94464 0.09314,0.21191 0.06991,0.52068 0.187494,0.70783 -0.04675,0.40052 -0.117549,0.7781 -0.328404,1.10893 -0.283196,-0.0728 -0.662947,0 -0.944438,0.16385 -0.235768,0.30876 -0.284049,0.80489 -0.07166,1.15801 0.07166,0.14346 0.21154,0.16676 0.30725,0.25997 -0.02491,0.2374 -0.189708,0.40052 -0.30725,0.59058 -0.567244,0.68453 -1.013702,1.55941 -1.842472,2.10178 -0.213252,0.23376 -0.565534,0.35319 -0.824678,0.54034 -0.828088,0.3328 -1.654473,0.68744 -2.478808,0.85209 -0.403294,0.13909 -0.897183,0 -1.22695,0.18715 -0.331645,-0.0219 -0.661585,-0.0219 -0.990501,0.051 -1.038779,-0.13982 -2.197319,0.0218 -3.260154,-0.25998 -0.329081,-0.051 -0.636337,-0.21337 -0.99118,-0.11651 l -0.04508,-0.0728 c -1.062834,-0.11943 -1.960186,-0.59059 -2.95137,-0.87554 -0.968832,-0.35246 -1.840765,-0.87189 -2.644289,-1.50777 -0.565708,-0.51922 -1.017113,-0.96708 -1.462888,-1.53523 -0.237304,-0.14055 -0.378047,-0.45004 -0.471535,-0.7339 -0.237304,-0.30439 -0.354846,-0.7071 -0.522205,-1.0144 -0.187494,-0.63792 -0.284048,-1.43947 -0.258284,-2.0267 0.119246,-0.051 0,-0.12016 0,-0.26071 0.141595,-0.284 0.02272,-0.54397 0.190058,-0.82383 0.423087,-0.19006 0.658854,-0.70855 1.156322,-0.8049 0.919529,-0.49664 1.982364,-0.284 3.043491,-0.30658 0.778786,0 1.485238,0.23376 2.173437,0.49665 0.32994,0.18715 0.755583,0.32842 1.013701,0.5884 0.494736,0.284 0.895475,0.82725 1.206989,1.27525 0.09314,0.0728 -0.02833,0.28401 0.161555,0.23667 0.4712,-0.75727 0.309805,-1.77248 0.213251,-2.62041 -0.02338,-0.28182 -0.14177,-0.47334 -0.332497,-0.63719 -0.326525,-0.49446 -0.658854,-0.94443 -1.130392,-1.27526 -0.684786,-0.40052 -1.487624,-0.56364 -2.291149,-0.73149 -0.565533,-0.14055 -1.318733,-0.0437 -1.770821,-0.51704 -0.471535,-0.16676 -0.894622,-0.40416 -1.155299,-0.85128 -0.118903,-0.14055 -0.260672,-0.23449 -0.234748,-0.40052 -0.214103,-0.14346 -0.145009,-0.40052 -0.2849,-0.54179 -0.261699,-0.92127 -0.07078,-2.00624 0.473924,-2.78762 0.281659,-0.28327 0.494051,-0.63792 0.9197,-0.75487 0.305035,0.35392 0.612285,0.7315 1.037074,0.94479 0.259136,0.0437 0.543184,0.51849 0.755583,0.21118 -0.258284,-0.44785 -0.32994,-0.87211 -0.403293,-1.39038 0.145002,-0.11943 0.306739,-0.14055 0.451749,-0.16603 0.565533,0.0291 1.226266,0.11724 1.791293,0.30512 0.238156,0.21337 0.662095,0.14273 0.828942,0.47334 0.327377,0.11724 0.707135,0.28328 0.991182,0.51995 -0.07335,0.65903 -0.49644,1.20272 -0.828089,1.7708 0.04843,0.0728 0.1184,0.0728 0.189183,0.0728 0.213251,-0.11724 0.399034,-0.25997 0.638894,-0.35391 0.894622,-0.35391 1.723052,-0.94479 2.383272,-1.60565 0.04763,-0.18788 -0.190902,-0.18788 -0.260847,-0.28327 -1.156835,-0.28109 -2.00625,-1.15583 -3.043494,-1.72304 0.25658,-0.0939 0.636338,0.0437 0.869716,0 1.95848,0.25998 3.922079,0.61389 5.571774,1.58227 0.141594,0 0.284048,0 0.354845,-0.0728 -0.307424,-0.70783 -0.920554,-1.32215 -1.4402,-1.84246 -0.141594,-0.11724 -0.283196,-0.18934 -0.378898,-0.35391 -0.353309,-0.18934 -0.495763,-0.44786 -0.84805,-0.66122 -0.260847,-0.21337 -0.613137,-0.30731 -0.800452,-0.5651 -0.215807,-0.0291 -0.404663,-0.16603 -0.590446,-0.25779 -0.332496,-0.23885 -0.732211,-0.30949 -1.087059,-0.47334 0.09401,-0.14273 0.212399,-0.30731 0.306398,-0.40125 0.04843,-0.14054 0.307416,-0.21337 0.164293,-0.40052 -0.518964,-0.28546 -1.130391,-0.33061 -1.675115,-0.44785 l -0.116682,-0.0961 c -0.757291,-0.11724 -1.3462,-0.25778 -2.076194,-0.4027 -0.0957,0.0437 -0.166507,0.0437 -0.237304,0 -1.158711,-0.2323 -2.17173,-0.33061 -3.350572,-0.30512 l -0.707135,-0.30513 c -0.522204,-0.0961 -1.039631,-0.26434 -1.606875,-0.28327 l -0.09433,-0.0728 c -0.8014755,-0.19007 -1.6043157,-0.3328 -2.500986,-0.26216 -1.1104312,-0.0728 -2.173435,0.0291 -3.2806251,0.11724 l -0.7796383,0.051 c -0.4264992,0.083 -0.9922059,0.0655 -1.1570059,0.56509 0.1424436,0.33061 0.3548478,0 0.5423352,0.051 0.9937416,0.0437 2.0796066,0.0655 3.0469052,0.0437 0,0 1.8629444,0.25997 2.760297,0.49664 0.3773621,0.051 0.7332344,0.21337 1.0621499,0.40271 0.51726,0.11724 0.894625,0.42236 1.36855,0.6117 0.423938,0.35173 0.895475,0.56728 1.229337,1.01302 l -0.21478,0.0728 c -0.565709,0.0939 -1.131244,0.35609 -1.675286,0.54179 -0.590446,0.16603 -1.2028952,0.42455 -1.7469374,0.73157 -0.6131368,-0.35173 -1.510145,-0.16458 -2.1222551,-0.0219 -0.8055704,0.18569 -1.2753999,0.89359 -1.5845266,1.60157 0.071657,0.16603 -0.1415945,0.16603 -0.1158375,0.33279 -0.071656,0.16239 0.1415946,0.21118 0.2347408,0.18788 0.2840483,-0.30731 0.7789562,-0.25997 1.1563219,-0.35391 0.2357675,0.0291 0.4964401,-0.0728 0.6615851,0.0728 -0.4964474,0.63792 -0.7096911,1.41595 -1.0137013,2.1478 0.045878,0.11943 0.022356,0.37722 -0.096569,0.51995 -0.1641182,0.82747 0.2132511,1.60295 0.6363379,2.21786 0.1883387,0.42309 0.5199906,0.68671 0.8062527,1.10798 -0.617914,0.3794 -1.4185339,0.42455 -1.9601875,0.9453 -0.5448935,0.23594 -0.8997415,0.7805 -1.4395159,0.99139 -0.2608481,0.25998 -0.6131354,0.52068 -0.8512918,0.80279 -0.1900538,0.14055 -0.1900538,0.37794 -0.4256458,0.47188 -0.5431865,0.80148 -1.0396307,1.48608 -1.3895307,2.38499 0.022524,0.33061 -0.3089548,0.59058 -0.3089548,0.96882 -0.32993912,0.70637 -0.32993912,1.4876 -0.37736571,2.26555 0.047589,0.21191 0.0250871,0.5884 0.0250871,0.82551 -0.0510043,0.52068 0.13903337,0.85129 0.16479405,1.34538 0.20983716,0.54398 0.30673736,1.2044 0.59061526,1.69828 -0.048456,0.12088 0.04555,0.19006 0.090595,0.26143 0.048455,0.11869 0.1909013,0.0954 0.1649673,0.23594 0.1897071,0.21409 0.3347155,0.51849 0.5904442,0.54252 0.1192462,-0.14055 0,-0.40052 -0.068249,-0.56583 -0.025757,-0.63719 0.068249,-1.3713 0.4007393,-1.93632 0.2355963,-0.51704 0.8487312,-0.78051 1.4395162,-0.82638 1.462718,0.23667 2.077899,1.69849 2.596522,2.90361 0.1897078,0.37722 0.2840483,0.89717 0.5680966,1.24875 l -0.023376,0.0736 h 0.045878 c 0.3773693,0.49665 0.5199906,1.15874 0.9205529,1.62859 0.1647955,0.61461 0.6839341,0.99285 1.038779,1.46284 0.471535,0.35391 0.8495848,0.87451 1.3927728,1.20527 0.118401,0.18788 0.424791,0.23449 0.589936,0.37722 0.966274,0.30658 1.95848,0.87211 3.069082,0.85063 0.07078,-0.051 0.187494,-0.051 0.187494,-0.14273 0,-0.0728 0,-0.16458 -0.06991,-0.16458 -0.639746,-0.28692 -1.157005,-0.92127 -1.392773,-1.55933 -0.141594,-0.14273 -0.09264,-0.35319 -0.237471,-0.51776 0.05017,-0.49665 0.145002,-1.04055 0.590613,-1.39199 0.471535,-0.16676 1.084669,-0.051 1.535222,-0.0983 1.013701,0 2.030132,0.52213 2.785888,1.18124 0.468979,0.33061 0.943073,0.64083 1.414268,0.99118 0.329089,0.0437 0.590613,0.33061 0.849755,0.49664 0.424791,0.21264 0.847879,0.4981 1.347736,0.61243 0.894622,0.40343 1.815176,0.66049 2.806358,0.7339 0.283196,0.0939 0.683934,0.0218 0.922259,0.14054 0.116354,-0.1187 0.377194,-0.0437 0.542165,-0.0728 0.755584,-0.11724 1.604487,-0.0954 2.241676,-0.40125 0.09502,-0.0728 0.04843,-0.23667 0,-0.33061 -0.445611,-0.16603 -0.99033,-0.11651 -1.391068,-0.37648"
         fill-rule="nonzero"
         fill="#231f20"
         id="path54"
         style="fill:#4b0704;fill-opacity:1;stroke:#be8448;stroke-width:0.263961;stroke-linecap:round;stroke-linejoin:round;stroke-miterlimit:4;stroke-dasharray:none;stroke-opacity:1" />
      <g
         transform="matrix(0.21324895,0,0,-0.21324917,-124.72518,430.19837)"
         id="g58"
         style="fill:#4b0704;fill-opacity:1;stroke:#be8448;stroke-width:1.23781;stroke-linecap:round;stroke-linejoin:round;stroke-miterlimit:4;stroke-dasharray:none;stroke-opacity:1">
        <path
           stroke-linejoin="miter"
           d="m 663,1035 c 0.878,-0.55 2.437,-0.55 3.433,-1.12 0.551,0.34 0.442,-0.54 1.106,-0.54 1.109,0.22 2.105,-0.11 2.879,-0.55 -2.543,-0.68 -5.313,-1.33 -8.079,-1.67 -1.882,1.33 -3.105,3.53 -5.316,4.77 2.102,0 3.875,-1.11 5.977,-0.89 z m 46.05,-135.5 c -0.89,0.785 -1.89,1.332 -2.875,1.992 -0.343,0.777 -1.336,0.891 -1.558,1.887 0,1.773 -0.891,2.773 -0.547,4.652 0.223,1 1.328,1.211 1.664,2.102 0.762,0.441 1.426,1.437 2.426,1.437 1.328,1.113 3.312,1.66 4.644,2.664 9.762,4.313 17.27,14.5 21.38,23.89 0.543,2.437 1.094,4.879 1.774,7.199 l 2.98,1.234 c 0.774,0.766 1.117,1.754 1.321,2.867 -0.204,1.657 -1.43,3.102 -2.536,3.981 0.446,1.449 1.657,3.441 1.106,4.773 0.336,1.543 -0.445,3.094 -0.891,4.637 -1.222,3.426 -4.75,5.981 -8.297,6.754 -0.554,0.113 -1.218,-0.336 -1.105,-0.996 1.32,-1.219 2.328,-2.664 2.988,-4.43 0.438,-0.992 0.328,-2.441 0.879,-3.32 -0.219,-1.879 -0.551,-3.649 -1.539,-5.199 -1.328,0.332 -3.109,0 -4.43,-0.77 -1.105,-1.449 -1.332,-3.773 -0.336,-5.43 0.336,-0.671 0.993,-0.781 1.442,-1.218 -0.117,-1.114 -0.891,-1.879 -1.442,-2.77 -2.66,-3.211 -4.754,-7.312 -8.636,-9.851 -1,-1.098 -2.653,-1.657 -3.868,-2.536 -3.882,-1.562 -7.757,-3.222 -11.62,-3.996 -1.89,-0.652 -4.207,0 -5.753,-0.879 -1.555,0.114 -3.102,0.114 -4.645,-0.226 -4.871,0.656 -10.31,-0.113 -15.29,1.219 -1.543,0.222 -2.984,1 -4.649,0.547 l -0.21,0.335 c -4.985,0.559 -9.192,2.77 -13.84,4.106 -4.543,1.652 -8.633,4.09 -12.4,7.07 -2.652,2.438 -4.769,4.535 -6.859,7.199 -1.114,0.661 -1.774,2.11 -2.211,3.442 -1.113,1.43 -1.664,3.316 -2.449,4.758 -0.879,2.992 -1.332,6.75 -1.211,9.507 0.558,0.231 0,0.563 0,1.223 0.664,1.332 0.105,2.551 0.89,3.863 1.985,0.891 3.09,3.325 5.422,3.774 4.313,2.328 9.293,1.332 14.27,1.437 3.652,0 6.964,-1.097 10.19,-2.328 1.547,-0.879 3.543,-1.539 4.754,-2.758 2.32,-1.332 4.199,-3.879 5.66,-5.98 0.438,-0.332 -0.133,-1.332 0.758,-1.109 2.211,3.55 1.453,8.308 1,12.29 -0.109,1.32 -0.664,2.218 -1.559,2.988 -1.531,2.32 -3.089,4.43 -5.3,5.98 -3.211,1.879 -6.977,2.645 -10.74,3.43 -2.652,0.66 -6.183,0.219 -8.3,2.426 -2.211,0.781 -4.196,1.894 -5.418,3.992 -0.559,0.66 -1.223,1.102 -1.102,1.879 -1.004,0.672 -0.68,1.879 -1.336,2.54 -1.226,4.32 -0.332,9.41 2.223,13.07 1.32,1.33 2.316,2.99 4.312,3.54 1.43,-1.67 2.871,-3.43 4.864,-4.44 1.214,-0.21 2.547,-2.42 3.543,-0.98 -1.211,2.1 -1.547,4.09 -1.891,6.52 0.68,0.56 1.437,0.66 2.117,0.78 2.653,-0.12 5.75,-0.55 8.403,-1.43 1.117,-1 3.105,-0.67 3.886,-2.22 1.535,-0.55 3.317,-1.33 4.649,-2.44 -0.344,-3.09 -2.328,-5.64 -3.883,-8.3 0.226,-0.33 0.555,-0.33 0.887,-0.33 1,0.55 1.871,1.22 2.996,1.66 4.195,1.66 8.082,4.43 11.18,7.53 0.223,0.88 -0.894,0.88 -1.222,1.33 -5.426,1.31 -9.406,5.42 -14.27,8.08 1.203,0.44 2.985,-0.22 4.078,0 9.188,-1.22 18.39,-2.88 26.13,-7.43 0.664,0 1.332,0 1.664,0.34 -1.441,3.32 -4.316,6.2 -6.754,8.64 -0.664,0.55 -1.328,0.89 -1.777,1.66 -1.656,0.89 -2.324,2.09 -3.976,3.09 -1.223,1.01 -2.875,1.45 -3.754,2.66 -1.012,0.11 -1.899,0.77 -2.77,1.21 -1.558,1.12 -3.433,1.45 -5.098,2.22 0.442,0.66 0.997,1.43 1.438,1.88 0.227,0.66 1.441,1 0.769,1.88 -2.433,1.33 -5.3,1.55 -7.855,2.1 l -0.547,0.45 c -3.551,0.55 -6.312,1.21 -9.738,1.89 -0.449,-0.22 -0.781,-0.22 -1.113,0 -5.434,1.09 -10.18,1.55 -15.72,1.43 l -3.317,1.43 c -2.449,0.45 -4.875,1.24 -7.535,1.33 l -0.441,0.33 c -3.758,0.89 -7.524,1.56 -11.73,1.23 -5.207,0.33 -10.19,-0.12 -15.38,-0.55 l -3.656,-0.23 c -2,-0.39 -4.652,-0.32 -5.426,-2.65 0.668,-1.55 1.664,0 2.543,-0.23 4.661,-0.22 9.75,-0.32 14.29,-0.22 0,0 8.739,-1.21 12.95,-2.32 1.769,-0.23 3.437,-1 4.98,-1.89 2.426,-0.55 4.196,-1.98 6.418,-2.87 1.988,-1.65 4.199,-2.66 5.766,-4.75 l -1.008,-0.34 c -2.652,-0.44 -5.305,-1.67 -7.855,-2.54 -2.77,-0.79 -5.641,-1.99 -8.196,-3.43 -2.875,1.64 -7.082,0.77 -9.949,0.09 -3.777,-0.87 -5.98,-4.19 -7.43,-7.51 0.336,-0.78 -0.664,-0.78 -0.543,-1.56 -0.336,-0.76 0.664,-0.99 1.102,-0.88 1.332,1.44 3.652,1.22 5.422,1.66 1.105,-0.12 2.328,0.33 3.101,-0.33 -2.328,-2.99 -3.328,-6.64 -4.754,-10.08 0.215,-0.55 0.106,-1.76 -0.453,-2.43 -0.769,-3.88 1,-7.518 2.985,-10.4 0.883,-1.984 2.437,-3.219 3.781,-5.195 -2.898,-1.782 -6.652,-1.993 -9.191,-4.434 -2.555,-1.105 -4.219,-3.66 -6.75,-4.648 -1.223,-1.219 -2.875,-2.442 -3.993,-3.766 -0.89,-0.66 -0.89,-1.77 -1.996,-2.211 -2.547,-3.758 -4.875,-6.969 -6.515,-11.18 0.105,-1.55 -1.45,-2.769 -1.45,-4.543 -1.546,-3.312 -1.546,-6.976 -1.769,-10.62 0.223,-0.992 0.117,-2.757 0.117,-3.871 -0.238,-2.441 0.652,-3.992 0.773,-6.308 0.985,-2.551 1.438,-5.649 2.77,-7.965 -0.227,-0.566 0.215,-0.891 0.426,-1.227 0.226,-0.554 0.894,-0.449 0.773,-1.105 0.891,-1.004 1.571,-2.43 2.77,-2.543 0.558,0.66 0,1.879 -0.321,2.652 -0.121,2.989 0.321,6.43 1.879,9.082 1.106,2.426 3.981,3.66 6.75,3.875 6.86,-1.109 9.746,-7.965 12.17,-13.62 0.891,-1.769 1.332,-4.207 2.664,-5.855 l -0.109,-0.344 h 0.215 c 1.769,-2.328 2.437,-5.434 4.316,-7.637 0.774,-2.883 3.207,-4.656 4.871,-6.859 2.211,-1.66 3.985,-4.102 6.532,-5.653 0.554,-0.878 1.992,-1.101 2.765,-1.769 4.531,-1.438 9.188,-4.09 14.4,-3.988 0.332,0.23 0.879,0.23 0.879,0.668 0,0.332 0,0.769 -0.328,0.769 -3,1.344 -5.426,4.32 -6.532,7.313 -0.664,0.668 -0.433,1.656 -1.113,2.429 0.234,2.328 0.68,4.879 2.77,6.528 2.21,0.781 5.085,0.23 7.199,0.461 4.754,0 9.523,-2.45 13.07,-5.539 2.199,-1.551 4.422,-3.004 6.633,-4.649 1.543,-0.219 2.769,-1.551 3.984,-2.328 1.993,-0.996 3.977,-2.336 6.321,-2.871 4.195,-1.891 8.511,-3.098 13.16,-3.441 1.328,-0.442 3.207,-0.106 4.324,-0.661 0.547,0.555 1.77,0.219 2.543,0.328 3.543,0.551 7.523,0.45 10.51,1.883 0.445,0.328 0.226,1.11 0,1.551 -2.09,0.777 -4.645,0.547 -6.524,1.766 z"
           stroke="#ffffff"
           stroke-linecap="butt"
           stroke-miterlimit="2.6131"
           stroke-dasharray="none"
           stroke-width="3.77406"
           fill="none"
           id="path56"
           style="fill:#4b0704;fill-opacity:1;stroke:#be8448;stroke-width:1.23781;stroke-linecap:round;stroke-linejoin:round;stroke-miterlimit:4;stroke-dasharray:none;stroke-opacity:1" />
      </g>
      <path
         d="m 44.343759,211.01882 c -0.2356,-0.25997 -0.214103,-0.56728 -0.426502,-0.80184 0.07335,-0.42673 -0.471535,-0.42673 -0.446288,-0.80176 -0.07093,-0.14055 -0.309128,-0.16604 -0.354161,-0.0291 0.04508,0.87437 -0.448843,1.60572 -0.992036,2.19732 -0.922088,1.10893 -2.478808,1.41602 -3.821425,1.67395 -0.144158,0.0961 -0.332329,-0.0219 -0.428206,0.11943 -0.588734,0.11724 -1.201018,0.11724 -1.791292,0.16603 -0.378899,0.0728 -0.946485,0.0728 -1.324533,0.0219 -0.282344,0.0939 -0.51726,0 -0.799771,0 -0.262209,0.0939 -0.498151,-0.0961 -0.732893,0.0437 -0.9197,-0.14273 -1.910712,0.0437 -2.879716,-0.0437 -0.115837,-0.051 -0.187494,0.11724 -0.258291,0.0219 l -1.439516,0.11724 c -0.2617,0.0218 -0.494911,-0.0219 -0.778957,0.0437 -1.205284,-0.0437 -2.502691,0.23667 -3.541641,0.7805 -1.132952,0.42455 -2.0779,1.53334 -2.454925,2.69208 0.07078,0.18788 -0.141594,0.35173 -0.115837,0.54179 -0.259653,0.59058 -0.11977,1.32193 0.164293,1.88848 0.07166,0.25852 0.167359,0.5418 0.2356,0.82471 -0.378047,-0.1187 -0.777933,-0.35318 -0.920383,-0.73324 -0.07078,-0.0437 -0.187494,-0.0918 -0.259996,0 -0.02323,0.19006 0,0.40416 0.09503,0.54543 0.307249,1.18037 0.871933,2.17176 1.862944,2.92583 h 0.07166 c 0.379751,0.37722 0.967128,0.49446 1.393626,0.8277 0.07078,0.0218 0.116682,-0.0291 0.187494,0.0437 0.331644,0.0218 0.590445,0.18788 0.85129,0.25852 l 0.094,-0.0219 c 0.260848,0.16676 0.707303,0.051 0.991354,0.0968 0.116682,0.1187 0.260847,-0.051 0.400738,-0.0728 0.32994,0 0.660391,-0.0932 1.01609,-0.11724 0.116682,-0.0437 0.256754,-0.16385 0.212399,-0.3044 -0.780492,-0.38013 -1.228486,-1.18124 -1.512534,-1.96189 -0.283196,-0.63573 -0.116682,-1.41594 -0.210862,-2.12566 -0.04814,-0.0728 -0.167359,-0.0437 -0.213251,0.0218 -0.212399,0.37722 -0.661243,0.59059 -1.08433,0.54398 -0.02527,-0.23667 -0.02527,-0.59058 0.187319,-0.75552 0.235768,-0.49665 0.659881,-0.85063 1.038098,-1.15707 0.897182,-0.49737 1.958479,-0.84888 3.021313,-0.80213 1.015237,-0.14054 2.0779,0.16531 2.927484,0.47407 0.566393,0.42382 1.154618,0.70564 1.746938,1.08213 0.568097,0.56801 0.897181,1.32201 1.181231,2.05401 0.187494,0.30804 0.115837,0.8022 0.305545,1.13449 0.21154,0.5651 0.04843,0.94544 0.02403,1.50945 0.09588,0.19006 -0.142271,0.35464 -0.04639,0.54398 -0.07253,0.35464 -0.213251,0.73222 -0.308444,1.08635 -0.165662,0.28255 -0.282344,0.5884 -0.471535,0.82471 -0.07151,0.23594 -0.284048,0.44931 -0.378046,0.6867 -0.399886,0.49446 -0.707987,1.17957 -1.346029,1.53268 l -0.352457,1.51185 c -0.613988,1.74692 -1.816881,3.37449 -3.282329,4.62498 1.629223,0 2.736413,-1.06217 4.130209,-1.77088 l 0.04639,0.0728 c 0.969685,0.45003 2.05572,0.87451 3.046903,0.284 0.565533,-0.14054 0.967981,-0.54398 1.226268,-1.0396 0.142447,-0.0932 0.213928,-0.23303 0.213928,-0.4231 -0.140749,-0.14345 -0.354845,0 -0.472219,0.0939 -0.613989,0.0954 -1.275401,-0.0939 -1.701047,-0.5447 0.542333,-0.56437 1.017113,-1.06196 1.53437,-1.65174 0.237647,-0.21046 0.354161,-0.5418 0.615693,-0.68234 0.04508,-0.19007 0.116682,-0.30804 0.233379,-0.45004 0.02578,-0.18861 0.189708,-0.28401 0.189708,-0.47189 0.117549,-0.284 0.307424,-0.49518 0.377362,-0.80402 0.329941,-0.40198 0.474098,-0.87124 0.590613,-1.36941 0.473924,0 0.874492,-0.28328 1.252882,-0.56655 0.539776,-0.5418 0.846173,-1.3668 0.846173,-2.14446 0,-0.0954 -0.139898,-0.16749 -0.04508,-0.26288 -0.139883,-0.18643 0.116682,-0.35392 -0.02323,-0.5418 -0.164795,-0.0947 -0.238156,0.1187 -0.353993,0.16749 -0.284901,0.42382 -0.826383,0.63719 -1.321976,0.65831 0,-0.0728 0,-0.0939 0.02323,-0.16385 0,-0.23667 0,-0.45004 -0.04843,-0.66122 0.09433,-0.32988 -0.163943,-0.59058 -0.094,-0.94377 -0.02403,-0.21045 -0.02403,-0.33061 -0.06991,-0.51703 -0.119246,-0.19007 -0.141595,-0.37795 -0.187494,-0.59204 h -0.04843 c -0.235593,-0.35319 -0.353141,-0.6605 -0.543017,-1.01543 -0.470683,-0.68379 -1.015408,-1.32113 -1.652766,-1.76913 0.568097,0.0437 1.014383,0.11797 1.510316,-0.0291 0.616203,0.051 1.061982,-0.0932 1.651061,-0.16458 0.590446,0.0437 1.135338,-0.19006 1.677673,-0.25997 0.354846,-0.13982 0.756437,-0.13982 1.062835,-0.351 0.353993,-0.0961 0.707302,-0.42673 0.778103,-0.80388 0.544043,-0.63792 0.566392,-1.53537 0.826382,-2.28944 0.0957,-0.99147 -0.165815,-1.86635 -0.306739,-2.7381"
         fill-rule="nonzero"
         fill="#231f20"
         id="path60"
         style="fill:#4b0704;fill-opacity:1;stroke:#be8448;stroke-width:0.263961;stroke-linecap:round;stroke-linejoin:round;stroke-miterlimit:4;stroke-dasharray:none;stroke-opacity:1" />
      <path
         d="m 16.706667,209.48345 c 0.187494,0.11724 0.519991,0.11724 0.732214,0.23885 0.117206,-0.0728 0.09401,0.11506 0.2356,0.11506 0.236794,-0.0437 0.449018,0.0219 0.613989,0.11725 -0.542333,0.14491 -1.13278,0.28327 -1.723052,0.35609 -0.40159,-0.28327 -0.66227,-0.75268 -1.133632,-1.0171 0.447992,0 0.826383,0.23667 1.274377,0.18934 z m 9.819698,28.89951 c -0.190057,-0.16749 -0.403301,-0.28401 -0.613137,-0.42528 -0.07335,-0.16531 -0.2849,-0.18934 -0.332496,-0.40198 0,-0.37867 -0.189708,-0.59204 -0.116682,-0.99219 0.04763,-0.21337 0.283363,-0.25852 0.354845,-0.44786 0.162575,-0.0947 0.304009,-0.30657 0.51726,-0.30657 0.283196,-0.2374 0.706451,-0.35392 0.990499,-0.56801 2.081312,-0.91952 3.683238,-3.09128 4.558414,-5.0941 0.115837,-0.51995 0.233379,-1.04048 0.378046,-1.53537 l 0.635654,-0.26289 c 0.164795,-0.16312 0.238156,-0.3743 0.281492,-0.6117 -0.04333,-0.35319 -0.305036,-0.66122 -0.540628,-0.84888 0.09485,-0.30877 0.353141,-0.73376 0.2356,-1.01783 0.07166,-0.32916 -0.09485,-0.65977 -0.189708,-0.98878 -0.260847,-0.73069 -1.013018,-1.27525 -1.769114,-1.44019 -0.1184,-0.0219 -0.259995,0.0728 -0.235767,0.21264 0.28166,0.25997 0.496447,0.56801 0.637357,0.94464 0.09314,0.21191 0.06991,0.52068 0.187494,0.70783 -0.04675,0.40052 -0.117549,0.7781 -0.328404,1.10893 -0.283196,-0.0728 -0.662947,0 -0.944438,0.16385 -0.235768,0.30876 -0.284049,0.80489 -0.07166,1.15801 0.07166,0.14346 0.21154,0.16676 0.30725,0.25997 -0.02491,0.2374 -0.189708,0.40052 -0.30725,0.59058 -0.567244,0.68453 -1.013702,1.55941 -1.842472,2.10178 -0.213252,0.23376 -0.565534,0.35319 -0.824678,0.54034 -0.828088,0.3328 -1.654473,0.68744 -2.478808,0.85209 -0.403294,0.13909 -0.897183,0 -1.22695,0.18715 -0.331645,-0.0219 -0.661585,-0.0219 -0.990501,0.051 -1.038779,-0.13982 -2.197319,0.0218 -3.260154,-0.25998 -0.329081,-0.051 -0.636337,-0.21337 -0.99118,-0.11651 l -0.04508,-0.0728 c -1.062834,-0.11943 -1.960186,-0.59059 -2.95137,-0.87554 -0.968832,-0.35246 -1.840765,-0.87189 -2.644289,-1.50777 -0.565708,-0.51922 -1.017113,-0.96708 -1.462888,-1.53523 -0.237304,-0.14055 -0.378047,-0.45004 -0.471535,-0.7339 -0.237304,-0.30439 -0.354846,-0.7071 -0.522205,-1.0144 -0.187494,-0.63792 -0.284048,-1.43947 -0.258284,-2.0267 0.119246,-0.051 0,-0.12016 0,-0.26071 0.141595,-0.284 0.02272,-0.54397 0.190058,-0.82383 0.423087,-0.19006 0.658854,-0.70855 1.156322,-0.8049 0.919529,-0.49664 1.982364,-0.284 3.043491,-0.30658 0.778786,0 1.485238,0.23376 2.173437,0.49665 0.32994,0.18715 0.755583,0.32842 1.013701,0.5884 0.494736,0.284 0.895475,0.82725 1.206989,1.27525 0.09314,0.0728 -0.02833,0.28401 0.161555,0.23667 0.4712,-0.75727 0.309805,-1.77248 0.213251,-2.62041 -0.02338,-0.28182 -0.14177,-0.47334 -0.332497,-0.63719 -0.326525,-0.49446 -0.658854,-0.94443 -1.130392,-1.27526 -0.684786,-0.40052 -1.487624,-0.56364 -2.291149,-0.73149 -0.565533,-0.14055 -1.318733,-0.0437 -1.770821,-0.51704 -0.471535,-0.16676 -0.894622,-0.40416 -1.155299,-0.85128 -0.118903,-0.14055 -0.260672,-0.23449 -0.234748,-0.40052 -0.214103,-0.14346 -0.145009,-0.40052 -0.2849,-0.54179 -0.261699,-0.92127 -0.07078,-2.00624 0.473924,-2.78762 0.281659,-0.28327 0.494051,-0.63792 0.9197,-0.75487 0.305035,0.35392 0.612285,0.7315 1.037074,0.94479 0.259136,0.0437 0.543184,0.51849 0.755583,0.21118 -0.258284,-0.44785 -0.32994,-0.87211 -0.403293,-1.39038 0.145002,-0.11943 0.306739,-0.14055 0.451749,-0.16603 0.565533,0.0291 1.226266,0.11724 1.791293,0.30512 0.238156,0.21337 0.662095,0.14273 0.828942,0.47334 0.327377,0.11724 0.707135,0.28328 0.991182,0.51995 -0.07335,0.65903 -0.49644,1.20272 -0.828089,1.7708 0.04843,0.0728 0.1184,0.0728 0.189183,0.0728 0.213251,-0.11724 0.399034,-0.25997 0.638894,-0.35391 0.894622,-0.35391 1.723052,-0.94479 2.383272,-1.60565 0.04763,-0.18788 -0.190902,-0.18788 -0.260847,-0.28327 -1.156835,-0.28109 -2.00625,-1.15583 -3.043494,-1.72304 0.25658,-0.0939 0.636338,0.0437 0.869716,0 1.95848,0.25998 3.922079,0.61389 5.571774,1.58227 0.141594,0 0.284048,0 0.354845,-0.0728 -0.307424,-0.70783 -0.920554,-1.32215 -1.4402,-1.84246 -0.141594,-0.11724 -0.283196,-0.18934 -0.378898,-0.35391 -0.353309,-0.18934 -0.495763,-0.44786 -0.84805,-0.66122 -0.260847,-0.21337 -0.613137,-0.30731 -0.800452,-0.5651 -0.215807,-0.0291 -0.404663,-0.16603 -0.590446,-0.25779 -0.332496,-0.23885 -0.732211,-0.30949 -1.087059,-0.47334 0.09401,-0.14273 0.212399,-0.30731 0.306398,-0.40125 0.04843,-0.14054 0.307416,-0.21337 0.164293,-0.40052 -0.518964,-0.28546 -1.130391,-0.33061 -1.675115,-0.44785 l -0.116682,-0.0961 c -0.757291,-0.11724 -1.3462,-0.25778 -2.076194,-0.4027 -0.0957,0.0437 -0.166507,0.0437 -0.237304,0 -1.158711,-0.2323 -2.17173,-0.33061 -3.350572,-0.30512 l -0.707135,-0.30513 c -0.522204,-0.0961 -1.039631,-0.26434 -1.606875,-0.28327 l -0.09433,-0.0728 c -0.8014755,-0.19007 -1.6043157,-0.3328 -2.500986,-0.26216 -1.1104312,-0.0728 -2.173435,0.0291 -3.2806251,0.11724 l -0.7796383,0.051 c -0.4264992,0.083 -0.9922059,0.0655 -1.1570059,0.56509 0.1424436,0.33061 0.3548478,0 0.5423352,0.051 0.9937416,0.0437 2.0796066,0.0655 3.0469052,0.0437 0,0 1.8629444,0.25997 2.760297,0.49664 0.3773621,0.051 0.7332344,0.21337 1.0621499,0.40271 0.51726,0.11724 0.894625,0.42236 1.36855,0.6117 0.423938,0.35173 0.895475,0.56728 1.229337,1.01302 l -0.21478,0.0728 c -0.565709,0.0939 -1.131244,0.35609 -1.675286,0.54179 -0.590446,0.16603 -1.2028952,0.42455 -1.7469374,0.73157 -0.6131368,-0.35173 -1.510145,-0.16458 -2.1222551,-0.0219 -0.8055704,0.18569 -1.2753999,0.89359 -1.5845266,1.60157 0.071657,0.16603 -0.1415945,0.16603 -0.1158375,0.33279 -0.071656,0.16239 0.1415946,0.21118 0.2347408,0.18788 0.2840483,-0.30731 0.7789562,-0.25997 1.1563219,-0.35391 0.2357675,0.0291 0.4964401,-0.0728 0.6615851,0.0728 -0.4964474,0.63792 -0.7096911,1.41595 -1.0137013,2.1478 0.045878,0.11943 0.022356,0.37722 -0.096569,0.51995 -0.1641182,0.82747 0.2132511,1.60295 0.6363379,2.21786 0.1883387,0.42309 0.5199906,0.68671 0.8062527,1.10798 -0.617914,0.3794 -1.4185339,0.42455 -1.9601875,0.9453 -0.5448935,0.23594 -0.8997415,0.7805 -1.4395159,0.99139 -0.2608481,0.25998 -0.6131354,0.52068 -0.8512918,0.80279 -0.1900538,0.14055 -0.1900538,0.37794 -0.4256458,0.47188 -0.5431865,0.80148 -1.0396307,1.48608 -1.3895307,2.38499 0.022524,0.33061 -0.3089548,0.59058 -0.3089548,0.96882 -0.32993912,0.70637 -0.32993912,1.4876 -0.37736571,2.26555 0.047589,0.21191 0.0250871,0.5884 0.0250871,0.82551 -0.0510043,0.52068 0.13903337,0.85129 0.16479405,1.34538 0.20983716,0.54398 0.30673736,1.2044 0.59061526,1.69828 -0.048456,0.12088 0.04555,0.19006 0.090595,0.26143 0.048455,0.11869 0.1909013,0.0954 0.1649673,0.23594 0.1897071,0.21409 0.3347155,0.51849 0.5904442,0.54252 0.1192462,-0.14055 0,-0.40052 -0.068249,-0.56583 -0.025757,-0.63719 0.068249,-1.3713 0.4007393,-1.93632 0.2355963,-0.51704 0.8487312,-0.78051 1.4395162,-0.82638 1.462718,0.23667 2.077899,1.69849 2.596522,2.90361 0.1897078,0.37722 0.2840483,0.89717 0.5680966,1.24875 l -0.023376,0.0736 h 0.045878 c 0.3773693,0.49665 0.5199906,1.15874 0.9205529,1.62859 0.1647955,0.61461 0.6839341,0.99285 1.038779,1.46284 0.471535,0.35391 0.8495848,0.87451 1.3927728,1.20527 0.118401,0.18788 0.424791,0.23449 0.589936,0.37722 0.966274,0.30658 1.95848,0.87211 3.069082,0.85063 0.07078,-0.051 0.187494,-0.051 0.187494,-0.14273 0,-0.0728 0,-0.16458 -0.06991,-0.16458 -0.639746,-0.28692 -1.157005,-0.92127 -1.392773,-1.55933 -0.141594,-0.14273 -0.09264,-0.35319 -0.237471,-0.51776 0.05017,-0.49665 0.145002,-1.04055 0.590613,-1.39199 0.471535,-0.16676 1.084669,-0.051 1.535222,-0.0983 1.013701,0 2.030132,0.52213 2.785888,1.18124 0.468979,0.33061 0.943073,0.64083 1.414268,0.99118 0.329089,0.0437 0.590613,0.33061 0.849755,0.49664 0.424791,0.21264 0.847879,0.4981 1.347736,0.61243 0.894622,0.40343 1.815176,0.66049 2.806358,0.7339 0.283196,0.0939 0.683934,0.0218 0.922259,0.14054 0.116354,-0.1187 0.377194,-0.0437 0.542165,-0.0728 0.755584,-0.11724 1.604487,-0.0954 2.241676,-0.40125 0.09502,-0.0728 0.04843,-0.23667 0,-0.33061 -0.445611,-0.16603 -0.99033,-0.11651 -1.391068,-0.37648"
         fill-rule="nonzero"
         fill="#231f20"
         id="path62"
         style="fill:#4b0704;fill-opacity:1;stroke:#be8448;stroke-width:0.263961;stroke-linecap:round;stroke-linejoin:round;stroke-miterlimit:4;stroke-dasharray:none;stroke-opacity:1" />
    </g>
  </g>
</svg>
